<svg width="133" height="133" viewBox="0 0 133 133" fill="none" xmlns="http://www.w3.org/2000/svg">
<rect width="133" height="133" rx="17.0513" fill="#6E4EF2"/>
<path fill-rule="evenodd" clip-rule="evenodd" d="M69.8756 43.5254C68.712 43.5254 67.5811 43.669 66.5 43.9393C67.1959 37.6618 69.7017 31.9337 73.4869 27.282C88.5397 29.066 100.216 41.8757 100.216 57.41V79.5527C99.6117 79.5866 99.0025 79.6038 98.3891 79.6038C86.3472 79.6038 75.8483 72.9688 70.3598 63.1479H83.7602V57.41C83.7602 49.7418 77.5438 43.5254 69.8756 43.5254Z" fill="white"/>
<path fill-rule="evenodd" clip-rule="evenodd" d="M32.3975 59.3276C32.3975 40.6876 47.5082 25.5769 66.1482 25.5769C75.4682 25.5769 83.9059 29.3546 90.0135 35.4623C84.3832 29.832 76.7729 26.1818 68.3167 25.6456C62.6289 31.9404 59.1654 40.2834 59.1654 49.4353C59.1654 50.118 59.1847 50.7962 59.2227 51.4693C57.0465 53.3887 55.6738 56.1978 55.6738 59.3276V61.6553H76.6225L61.3249 61.6554C66.3056 75.2391 79.3518 84.9318 94.6618 84.9318C96.4411 84.9318 98.1899 84.8008 99.8989 84.5481V98.8974H76.6225V84.9316H55.6738V98.8974H32.3975V73.2934V59.3276Z" fill="white"/>
</svg>
