<svg width="129" height="100" viewBox="0 0 129 100" fill="none" xmlns="http://www.w3.org/2000/svg">
<path d="M95.5253 7.07595C110.08 7.07595 121.924 18.92 121.924 33.4747V83.5506C121.924 88.4494 117.978 92.45 113.095 92.5317C113.046 92.5317 112.997 92.5317 112.948 92.5317C107.99 92.5317 103.962 88.2861 103.962 83.3111V33.6108C103.962 28.1351 99.3681 23.6772 93.8924 23.6772C93.5059 23.6772 93.1195 23.699 92.7276 23.7425C87.6057 24.3304 83.8228 28.8372 83.8228 33.9918V83.5506C83.8228 86.1034 85.8966 88.1772 88.4494 88.1772C88.5528 88.1772 88.6616 88.1718 88.7651 88.1663C91.2199 88.003 93.0759 85.8476 93.0759 83.3873V37.557C93.0759 36.3541 94.0502 35.3797 95.2532 35.3797C96.4561 35.3797 97.4304 36.3541 97.4304 37.557V83.5506C97.4304 88.4494 93.4842 92.45 88.6018 92.5317C88.5528 92.5317 88.5038 92.5317 88.4548 92.5317C83.4962 92.5317 79.4683 88.2861 79.4683 83.3111V33.6108C79.4683 25.7347 86.0109 19.3228 93.8924 19.3228C94.3333 19.3228 94.7796 19.3446 95.2259 19.3827C102.699 20.0685 108.316 26.5403 108.316 34.0408V83.5506C108.316 86.1034 110.39 88.1772 112.943 88.1772C113.046 88.1772 113.155 88.1718 113.259 88.1663C115.714 88.003 117.57 85.8476 117.57 83.3873V33.4747C117.57 21.3204 107.68 11.4304 95.5253 11.4304C95.3511 11.4304 95.1715 11.4304 94.9919 11.4358C82.9573 11.7189 73.481 21.8484 73.481 33.8884V83.5506C73.481 88.4494 69.5348 92.45 64.6524 92.5317C64.6034 92.5317 64.5544 92.5317 64.5054 92.5317C59.5468 92.5317 55.519 88.2861 55.519 83.3111V33.4747C55.519 21.3204 45.629 11.4304 33.4747 11.4304C33.3005 11.4304 33.1209 11.4304 32.9413 11.4358C20.9067 11.7189 11.4304 21.8484 11.4304 33.8884V83.5506C11.4304 86.1034 13.5042 88.1772 16.057 88.1772C16.1604 88.1772 16.2692 88.1718 16.3727 88.1663C18.8275 88.003 20.6835 85.8476 20.6835 83.3873V33.6108C20.6835 25.7347 26.9594 19.3228 34.8354 19.3228C34.9116 19.3228 34.9933 19.3228 35.0695 19.3228C42.8422 19.448 48.9873 25.996 48.9873 33.7686V83.5506C48.9873 88.4494 45.0411 92.45 40.1587 92.5317C40.1097 92.5317 40.0608 92.5317 40.0118 92.5317C35.0586 92.5317 31.0253 88.2861 31.0253 83.3111V37.557C31.0253 36.3541 31.9996 35.3797 33.2025 35.3797C34.4054 35.3797 35.3797 36.3541 35.3797 37.557V83.5506C35.3797 86.1034 37.4535 88.1772 40.0063 88.1772C40.1097 88.1772 40.2186 88.1718 40.322 88.1663C42.7768 88.003 44.6329 85.8476 44.6329 83.3873V33.6108C44.6329 28.1351 40.3111 23.6772 34.8354 23.6772C34.7756 23.6772 34.7103 23.6772 34.6504 23.6772C29.2727 23.7806 25.038 28.331 25.038 33.7087V83.5506C25.038 88.4494 21.0918 92.45 16.2094 92.5317C16.1604 92.5317 16.1114 92.5317 16.0624 92.5317C11.1092 92.5317 7.07595 88.2861 7.07595 83.3111V33.4747C7.07595 18.92 18.92 7.07595 33.4747 7.07595C33.6434 7.07595 33.8176 7.07595 33.9863 7.08139C48.4376 7.35354 59.8734 19.4643 59.8734 33.9156V83.5506C59.8734 86.1034 61.9472 88.1772 64.5 88.1772C64.6034 88.1772 64.7123 88.1718 64.8157 88.1663C67.2705 88.003 69.1266 85.8476 69.1266 83.3873V33.9156C69.1266 19.4589 80.5624 7.35354 95.0137 7.08139C95.1878 7.07595 95.3566 7.07595 95.5253 7.07595ZM95.5253 0C95.313 0 95.0953 0 94.883 0.00544304C86.0272 0.174177 77.7375 3.82646 71.5433 10.2819C68.4843 13.477 66.1111 17.1728 64.5 21.1789C62.8943 17.1728 60.5211 13.477 57.4567 10.2819C51.268 3.82646 42.9782 0.174177 34.117 0.00544304C33.9047 0 33.687 0 33.4747 0C24.5427 0 16.1386 3.48354 9.8138 9.8138C3.48354 16.1386 0 24.5427 0 33.4747V83.3111C0 92.2976 7.20658 99.6076 16.0624 99.6076C16.1495 99.6076 16.2366 99.6076 16.3237 99.6076C20.972 99.5314 25.1577 97.4413 28.0534 94.1809C30.9981 97.512 35.2709 99.6076 40.0118 99.6076C40.0989 99.6076 40.1859 99.6076 40.273 99.6076C45.0683 99.526 49.3738 97.3052 52.2749 93.8652C55.2251 97.376 59.6122 99.6076 64.5054 99.6076C64.5925 99.6076 64.6796 99.6076 64.7667 99.6076C69.4151 99.5314 73.6008 97.4413 76.4964 94.1809C79.4411 97.512 83.7085 99.6076 88.4548 99.6076C88.5419 99.6076 88.629 99.6076 88.7161 99.6076C93.5114 99.526 97.8168 97.3052 100.718 93.8652C103.668 97.376 108.055 99.6076 112.948 99.6076C113.036 99.6076 113.123 99.6076 113.21 99.6076C121.913 99.4606 129 92.2595 129 83.5506V33.4747C129 15.0173 113.983 0 95.5253 0Z" fill="#6E4EF2"/>
<rect x="31.2397" y="48.5948" width="17.3555" height="3.47111" fill="white"/>
<rect width="10.4133" height="3.47111" transform="matrix(-1 0 0 1 104.329 48.5948)" fill="white"/>
</svg>
